<?xml version="1.0" encoding="utf-8"?>
<!-- Generator: Adobe Illustrator 24.2.0, SVG Export Plug-In . SVG Version: 6.00 Build 0)  -->
<svg version="1.1" id="Capa_1" xmlns="http://www.w3.org/2000/svg" xmlns:xlink="http://www.w3.org/1999/xlink" x="0px" y="0px"
	 viewBox="0 0 384 512" style="enable-background:new 0 0 384 512;" xml:space="preserve">
<style type="text/css">
	.st0{fill:#AFAFAF;}
</style>
<path class="st0" d="M48,0C21.5,0,0,21.5,0,48v416c0,26.5,21.5,48,48,48h96v-80c0-26.5,21.5-48,48-48s48,21.5,48,48v80h96
	c26.5,0,48-21.5,48-48V48c0-26.5-21.5-48-48-48H48z M64,240c0-8.8,7.2-16,16-16h32c8.8,0,16,7.2,16,16v32c0,8.8-7.2,16-16,16H80
	c-8.8,0-16-7.2-16-16V240z M176,224h32c8.8,0,16,7.2,16,16v32c0,8.8-7.2,16-16,16h-32c-8.8,0-16-7.2-16-16v-32
	C160,231.2,167.2,224,176,224z M256,240c0-8.8,7.2-16,16-16h32c8.8,0,16,7.2,16,16v32c0,8.8-7.2,16-16,16h-32c-8.8,0-16-7.2-16-16
	V240z M80,96h32c8.8,0,16,7.2,16,16v32c0,8.8-7.2,16-16,16H80c-8.8,0-16-7.2-16-16v-32C64,103.2,71.2,96,80,96z M160,112
	c0-8.8,7.2-16,16-16h32c8.8,0,16,7.2,16,16v32c0,8.8-7.2,16-16,16h-32c-8.8,0-16-7.2-16-16V112z M272,96h32c8.8,0,16,7.2,16,16v32
	c0,8.8-7.2,16-16,16h-32c-8.8,0-16-7.2-16-16v-32C256,103.2,263.2,96,272,96z"/>
</svg>
