<svg width="88" height="88" viewBox="0 0 88 88" fill="none" xmlns="http://www.w3.org/2000/svg">
<path d="M42.9481 15.8398C31.3294 15.8398 20.4187 16.7198 14.6094 17.9505C10.7387 18.8305 7.39062 21.4705 6.68937 25.5198C5.98812 29.7411 5.28 36.0798 5.28 43.9998C5.28 51.9198 5.98125 58.0798 6.86125 62.4798C7.56937 66.3505 10.9106 69.1692 14.7812 70.0492C20.9481 71.2798 31.5012 72.1598 43.12 72.1598C54.7388 72.1598 65.2919 71.2798 71.4519 70.0492C75.3294 69.1692 78.6706 66.5292 79.3719 62.4798C80.08 58.0798 80.96 51.748 81.1319 43.828C81.1319 35.908 80.2519 29.5692 79.3719 25.1692C78.6706 21.2986 75.3294 18.4798 71.4519 17.5998C65.2919 16.7198 54.56 15.8398 42.9481 15.8398ZM42.9481 19.3598C55.6187 19.3598 65.8212 20.4117 70.7506 21.2917C73.3906 21.9998 75.5013 23.7598 75.8519 26.0492C76.9106 31.6798 77.6119 37.668 77.6119 43.828C77.44 51.3905 76.56 57.5505 75.8519 61.9505C75.3294 65.2917 71.8094 66.3505 70.7506 66.708C64.4119 67.9386 53.8519 68.8117 43.2919 68.8117C32.7319 68.8117 22 68.1105 15.84 66.708C13.2 65.9998 11.0894 64.2398 10.7387 61.9505C9.32937 57.0211 8.8 50.5105 8.8 43.9998C8.8 35.9011 9.50812 29.9198 10.2094 26.228C10.7387 22.8798 14.4306 21.8211 15.3106 21.4705C21.12 20.2398 31.8587 19.3598 42.9481 19.3598ZM33.44 29.9198V58.0798L58.08 43.9998L33.44 29.9198ZM36.96 35.908L51.04 43.9998L36.96 52.0917V35.908Z" fill="white"/>
</svg>
