<svg width="88" height="88" viewBox="0 0 88 88" fill="none" xmlns="http://www.w3.org/2000/svg">
<path d="M28.16 5.27979C15.5452 5.27979 5.28 15.545 5.28 28.1598V59.8398C5.28 72.4546 15.5452 82.7198 28.16 82.7198H59.84C72.4548 82.7198 82.72 72.4546 82.72 59.8398V28.1598C82.72 15.545 72.4548 5.27979 59.84 5.27979H28.16ZM28.16 8.79978H59.84C70.5522 8.79978 79.2 17.4476 79.2 28.1598V59.8398C79.2 70.552 70.5522 79.1998 59.84 79.1998H28.16C17.4478 79.1998 8.8 70.552 8.8 59.8398V28.1598C8.8 17.4476 17.4478 8.79978 28.16 8.79978ZM65.12 19.3598C64.1864 19.3598 63.2911 19.7306 62.631 20.3908C61.9708 21.0509 61.6 21.9462 61.6 22.8798C61.6 23.8133 61.9708 24.7087 62.631 25.3688C63.2911 26.0289 64.1864 26.3998 65.12 26.3998C66.0536 26.3998 66.9489 26.0289 67.609 25.3688C68.2691 24.7087 68.64 23.8133 68.64 22.8798C68.64 21.9462 68.2691 21.0509 67.609 20.3908C66.9489 19.7306 66.0536 19.3598 65.12 19.3598ZM44 24.6398C33.3286 24.6398 24.64 33.3284 24.64 43.9998C24.64 54.6712 33.3286 63.3598 44 63.3598C54.6714 63.3598 63.36 54.6712 63.36 43.9998C63.36 33.3284 54.6714 24.6398 44 24.6398ZM44 28.1598C52.769 28.1598 59.84 35.2307 59.84 43.9998C59.84 52.7688 52.769 59.8398 44 59.8398C35.231 59.8398 28.16 52.7688 28.16 43.9998C28.16 35.2307 35.231 28.1598 44 28.1598Z" fill="white"/>
</svg>
