<svg width="88" height="88" viewBox="0 0 88 88" fill="none" xmlns="http://www.w3.org/2000/svg">
<g clip-path="url(#clip0_12_44)">
<path d="M60.225 9.625C49.6994 9.625 41.14 18.1844 41.14 28.71C41.14 29.3425 41.2981 29.9613 41.36 30.58C28.3456 29.3356 16.8369 23.0656 9.02 13.475C8.65563 13.0144 8.09188 12.7669 7.50063 12.8081C6.91625 12.8494 6.39375 13.1863 6.105 13.695C4.46188 16.5206 3.52 19.7725 3.52 23.265C3.52 27.4931 5.0325 31.3637 7.37 34.54C6.91625 34.3406 6.42125 34.2306 5.995 33.99C5.45188 33.7013 4.79875 33.715 4.26938 34.0312C3.74 34.3475 3.41688 34.9181 3.41 35.53V35.75C3.41 42.2331 6.765 47.8637 11.715 51.315C11.66 51.3081 11.605 51.3287 11.55 51.315C10.945 51.2119 10.3331 51.425 9.9275 51.8856C9.52188 52.3462 9.39125 52.9856 9.57 53.57C11.5363 59.6819 16.555 64.35 22.77 66.055C17.82 68.9975 12.0794 70.73 5.885 70.73C4.54438 70.73 3.25875 70.6612 1.98 70.51C1.155 70.4 0.364375 70.8812 0.0893758 71.665C-0.192499 72.4487 0.116876 73.3219 0.825001 73.755C8.76563 78.8494 18.1913 81.84 28.325 81.84C44.7494 81.84 57.6331 74.9787 66.275 65.175C74.9169 55.3712 79.42 42.6387 79.42 30.745C79.42 30.2431 79.3788 29.755 79.365 29.26C82.5894 26.7919 85.47 23.8975 87.725 20.515C88.1719 19.8619 88.1238 18.9888 87.6081 18.3838C87.0994 17.7788 86.24 17.5931 85.525 17.93C84.6175 18.3356 83.5588 18.3769 82.61 18.7C83.8613 17.0294 84.9338 15.2281 85.58 13.2C85.8 12.5056 85.5594 11.7425 84.9888 11.2888C84.4181 10.8419 83.6206 10.7869 82.995 11.165C79.9906 12.9456 76.6631 14.1969 73.15 14.96C69.74 11.77 65.2506 9.625 60.225 9.625ZM60.225 13.145C64.7144 13.145 68.7706 15.0631 71.61 18.095C72.0363 18.535 72.6619 18.7206 73.26 18.59C75.5563 18.1363 77.7356 17.4694 79.86 16.61C78.6363 18.26 77.1238 19.6694 75.35 20.735C74.5456 21.1269 74.1675 22.055 74.4631 22.9006C74.7519 23.7394 75.6319 24.2275 76.505 24.035C78.265 23.8219 79.8325 23.1069 81.51 22.66C80.0044 24.2894 78.3544 25.7606 76.56 27.06C76.0719 27.4175 75.8038 27.995 75.845 28.6C75.8725 29.315 75.9 30.0231 75.9 30.745C75.9 41.745 71.6788 53.6869 63.635 62.81C55.5913 71.9331 43.78 78.32 28.325 78.32C21.3056 78.32 14.6781 76.7662 8.69 74.03C16.115 73.4594 22.9625 70.8331 28.49 66.495C29.0675 66.0344 29.2944 65.2644 29.0606 64.5631C28.8269 63.8619 28.1806 63.3806 27.445 63.36C21.6425 63.2569 16.7819 59.8812 14.19 55.11C14.2863 55.11 14.3688 55.11 14.465 55.11C16.2044 55.11 17.9231 54.89 19.525 54.45C20.295 54.2231 20.8244 53.5081 20.7969 52.7037C20.7694 51.8994 20.1988 51.2119 19.415 51.04C13.1519 49.775 8.45625 44.6737 7.37 38.335C9.14375 38.9469 10.9588 39.4281 12.925 39.49C13.7294 39.5381 14.4581 39.0362 14.7056 38.2731C14.9531 37.51 14.6506 36.6712 13.97 36.245C9.79 33.4469 7.04 28.6825 7.04 23.265C7.04 21.2575 7.5625 19.415 8.25 17.655C17.05 27.3144 29.37 33.7287 43.285 34.43C43.835 34.4575 44.3713 34.2306 44.7288 33.8112C45.0863 33.385 45.2238 32.8212 45.1 32.285C44.8319 31.1437 44.66 29.9338 44.66 28.71C44.66 20.0887 51.6038 13.145 60.225 13.145Z" fill="white"/>
</g>
<defs>
<clipPath id="clip0_12_44">
<rect width="88" height="88" fill="white"/>
</clipPath>
</defs>
</svg>
