<svg width="88" height="88" viewBox="0 0 88 88" fill="none" xmlns="http://www.w3.org/2000/svg">
<path d="M15.84 7.04004C11.0009 7.04004 7.04 11.0009 7.04 15.84V72.16C7.04 76.9992 11.0009 80.96 15.84 80.96H45.4644C45.6544 80.9915 45.8484 80.9915 46.0384 80.96H56.0244C56.2144 80.9915 56.4084 80.9915 56.5984 80.96H72.16C76.9991 80.96 80.96 76.9992 80.96 72.16V15.84C80.96 11.0009 76.9991 7.04004 72.16 7.04004H15.84ZM15.84 10.56H72.16C75.0965 10.56 77.44 12.9035 77.44 15.84V72.16C77.44 75.0966 75.0965 77.44 72.16 77.44H58.08V52.8H64.8037L67.2684 40.48H58.08V36.96C58.08 35.9789 58.1734 35.9022 58.5028 35.6882C58.8323 35.4742 59.8502 35.2 61.6 35.2H66.88V25.2897L65.8763 24.8119C65.8763 24.8119 61.8335 22.88 56.32 22.88C52.36 22.88 49.1068 24.4578 47.025 27.06C44.9432 29.6623 44 33.1467 44 36.96V40.48H38.72V52.8H44V77.44H15.84C12.9035 77.44 10.56 75.0966 10.56 72.16V15.84C10.56 12.9035 12.9035 10.56 15.84 10.56ZM56.32 26.4C59.9791 26.4 62.2818 27.2069 63.36 27.6341V31.68H61.6C59.5746 31.68 57.9514 31.8476 56.5847 32.7354C55.2179 33.6231 54.56 35.3083 54.56 36.96V44H62.9716L61.9163 49.28H54.56V77.44H47.52V49.28H42.24V44H47.52V36.96C47.52 33.7334 48.3368 31.0578 49.775 29.26C51.2132 27.4623 53.24 26.4 56.32 26.4Z" fill="white"/>
</svg>
