<?xml version="1.0" encoding="utf-8"?>
<!-- Generator: Adobe Illustrator 24.2.0, SVG Export Plug-In . SVG Version: 6.00 Build 0)  -->
<svg version="1.1" id="Capa_1" xmlns="http://www.w3.org/2000/svg" xmlns:xlink="http://www.w3.org/1999/xlink" x="0px" y="0px"
	 viewBox="0 0 841.9 595.3" style="enable-background:new 0 0 841.9 595.3;" xml:space="preserve">
<style type="text/css">
	.st0{fill:#2FB9CE;}
	.st1{fill:none;stroke:#000000;stroke-width:7;stroke-miterlimit:10;}
	.st2{fill:none;stroke:#000000;stroke-width:7;stroke-miterlimit:10;stroke-dasharray:66.7227,66.7227;}
</style>
<path class="st0" d="M284.4,228.9v137.4c0,12.7-10.3,22.9-22.9,22.9h-38.1c-12.7,0-22.9-10.3-22.9-22.9V228.9
	c0-12.7,10.3-22.9,22.9-22.9h38.1C274.2,206,284.4,216.3,284.4,228.9z"/>
<path class="st0" d="M403.4,228.9v137.4c0,12.7-10.3,22.9-22.9,22.9h-38.1c-12.7,0-22.9-10.3-22.9-22.9V228.9
	c0-12.7,10.3-22.9,22.9-22.9h38.1C393.2,206,403.4,216.3,403.4,228.9z"/>
<path class="st0" d="M522.4,228.9v137.4c0,12.7-10.3,22.9-22.9,22.9h-38.1c-12.7,0-22.9-10.3-22.9-22.9V228.9
	c0-12.7,10.3-22.9,22.9-22.9h38.1C512.2,206,522.4,216.3,522.4,228.9z"/>
<path class="st0" d="M641.4,228.9v137.4c0,12.7-10.3,22.9-22.9,22.9h-38.1c-12.7,0-22.9-10.3-22.9-22.9V228.9
	c0-12.7,10.3-22.9,22.9-22.9h38.1C631.2,206,641.4,216.3,641.4,228.9z"/>
<g>
	<g>
		<line class="st1" x1="151" y1="148.1" x2="187.4" y2="148.1"/>
		<line class="st2" x1="254.1" y1="148.1" x2="621.1" y2="148.1"/>
		<line class="st1" x1="654.5" y1="148.1" x2="690.8" y2="148.1"/>
	</g>
</g>
<g>
	<g>
		<line class="st1" x1="151" y1="447.1" x2="187.4" y2="447.1"/>
		<line class="st2" x1="254.1" y1="447.1" x2="621.1" y2="447.1"/>
		<line class="st1" x1="654.5" y1="447.1" x2="690.8" y2="447.1"/>
	</g>
</g>
</svg>
