<?xml version="1.0" encoding="utf-8"?>
<!-- Generator: Adobe Illustrator 24.2.0, SVG Export Plug-In . SVG Version: 6.00 Build 0)  -->
<svg version="1.1" id="Capa_1" xmlns="http://www.w3.org/2000/svg" xmlns:xlink="http://www.w3.org/1999/xlink" x="0px" y="0px"
	 viewBox="0 0 512 512" style="enable-background:new 0 0 512 512;" xml:space="preserve">
<style type="text/css">
	.st0{fill:#2FB9CE;}
	.st1{fill:#FFFFFF;}
</style>
<path class="st0" d="M410.3,231l11.3-11.3l-33.9-33.9l-62.1-62.1l-33.9-33.9l-11.3,11.3l-22.6,22.6L58.6,322.9
	c-10.4,10.4-18,23.3-22.2,37.4L1,480.7c-2.5,8.4-0.2,17.5,6.1,23.7s15.3,8.5,23.7,6.1l120.3-35.4c14.1-4.2,27-11.8,37.4-22.2
	l199.2-199.2L410.3,231z"/>
<path class="st1" d="M160,399.4l-9.1,22.7c-4,3.1-8.5,5.4-13.3,6.9l-78.2,23l23-78.1c1.4-4.9,3.8-9.4,6.9-13.3l22.7-9.1v32
	c0,8.8,7.2,16,16,16h32V399.4z"/>
<path class="st0" d="M362.7,18.7l-14.4,14.5l-22.6,22.6l-11.4,11.3l33.9,33.9l62.1,62.1l33.9,33.9l11.3-11.3l22.6-22.6l14.5-14.5
	c25-25,25-65.5,0-90.5l-39.3-39.4C428.3-6.3,387.8-6.3,362.7,18.7L362.7,18.7z"/>
<path class="st1" d="M315.3,186.7l-144,144c-6.2,6.2-16.4,6.2-22.6,0s-6.2-16.4,0-22.6l144-144c6.2-6.2,16.4-6.2,22.6,0
	S321.5,180.5,315.3,186.7L315.3,186.7z"/>
</svg>
