<?xml version="1.0" encoding="utf-8"?>
<!-- Generator: Adobe Illustrator 24.2.0, SVG Export Plug-In . SVG Version: 6.00 Build 0)  -->
<svg version="1.1" id="Capa_1" xmlns="http://www.w3.org/2000/svg" xmlns:xlink="http://www.w3.org/1999/xlink" x="0px" y="0px"
	 viewBox="0 0 841.9 595.3" style="enable-background:new 0 0 841.9 595.3;" xml:space="preserve">
<style type="text/css">
	.st0{fill:none;stroke:#000000;stroke-width:7;stroke-miterlimit:10;stroke-dasharray:67.5614,67.5614;}
	.st1{fill:#2FB9CE;}
</style>
<g>
	<circle class="st0" cx="420.9" cy="297.6" r="258.1"/>
</g>
<path class="st1" d="M489.7,216.6H352.2c-12.7,0-22.9-10.3-22.9-22.9v-38.1c0-12.7,10.3-22.9,22.9-22.9h137.4
	c12.7,0,22.9,10.3,22.9,22.9v38.1C512.6,206.4,502.3,216.6,489.7,216.6z"/>
<path class="st1" d="M489.7,339.6H352.2c-12.7,0-22.9-10.3-22.9-22.9v-38.1c0-12.7,10.3-22.9,22.9-22.9h137.4
	c12.7,0,22.9,10.3,22.9,22.9v38.1C512.6,329.4,502.3,339.6,489.7,339.6z"/>
<path class="st1" d="M489.7,462.6H352.2c-12.7,0-22.9-10.3-22.9-22.9v-38.1c0-12.7,10.3-22.9,22.9-22.9h137.4
	c12.7,0,22.9,10.3,22.9,22.9v38.1C512.6,452.4,502.3,462.6,489.7,462.6z"/>
</svg>
