<?xml version="1.0" encoding="utf-8"?>
<!-- Generator: Adobe Illustrator 24.2.0, SVG Export Plug-In . SVG Version: 6.00 Build 0)  -->
<svg version="1.1" id="Capa_1" xmlns="http://www.w3.org/2000/svg" xmlns:xlink="http://www.w3.org/1999/xlink" x="0px" y="0px"
	 viewBox="0 0 595.3 595.3" style="enable-background:new 0 0 595.3 595.3;" xml:space="preserve">
<style type="text/css">
	.st0{fill:#2FB9CE;}
	.st1{fill:#FFFFFF;}
</style>
<rect x="-385" y="296.4" style="fill:none;" width="280.6" height="74.8"/>
<text transform="matrix(1 0 0 1 -384.9586 322.3036)"><tspan x="0" y="0" class="st1" style="font-family:'InstrumentSans-SemiBoldItalic'; font-size:36px;">Tipografía:</tspan><tspan x="0" y="43.2" class="st1" style="font-family:'InstrumentSans-SemiBoldItalic'; font-size:36px;">Instrument Sans</tspan></text>
<rect x="-385" y="-322" style="fill:none;" width="280.6" height="37.4"/>
<text transform="matrix(1 0 0 1 -384.9591 -296.1164)" class="st1" style="font-family:'InstrumentSans-SemiBoldItalic'; font-size:36px;">Forma sin unir -&gt;</text>
<g>
	<path class="st0" d="M546.2,566.6H49.1c-11.3,0-20.4-9.1-20.4-20.4V49.1c0-11.3,9.1-20.4,20.4-20.4h497.1
		c11.3,0,20.4,9.1,20.4,20.4v497.1C566.6,557.5,557.5,566.6,546.2,566.6z"/>
	<g>
		<path class="st1" d="M353.2,426.3c-1.6,7.6-4.5,13.3-8.7,17.3c-4.2,3.9-9.8,5.9-16.8,5.9c-3.5,0-7-0.5-10.6-1.4
			c-1.3-0.4-2.5-0.7-3.6-1.1c-2.1-0.7-3.6-1.6-4.8-2.8c-2.6-2.8-3.6-6.7-3-10.5c1.7-9.8,6.9-30.8,6.9-30.8l29.6-128.3
			c5.7-25.2,3-45.3-7.9-60.3c-11-15-28.2-22.5-51.8-22.5c-16.5,0-32.3,4.4-47.5,13.2c-11.8,6.8-21.6,15.5-29.4,26l7.9-35.1h-49.9
			l-47.5,207h51.1l26.1-113.2l-0.1,1.1c4.3-18.4,12.3-32.7,23.9-42.8c11.6-10.1,25.4-15.2,41.4-15.2c13.3,0,22.6,3.9,28,11.6
			c5.4,7.7,6.4,19.1,2.8,34.3l-28.4,124.2c-5.4,23.5-1.2,40.4-1.2,40.4c6.8,30.9,40.6,40.7,40.6,40.7l0,0c5.4,2.3,11.2,3.8,17.3,4.7
			c6.4,0.9,12.1,1.4,17.3,1.4c18.9,0,34-5,45.1-15c11.1-10,18.8-24.1,23.1-42.2l54.8-237h-51.5L353.2,426.3z"/>
		<polygon class="st1" points="423.1,105.3 411.3,161.7 466.9,161.7 479.1,105.3 		"/>
	</g>
</g>
<g>
	<g>
		<path class="st1" d="M116.2-187.3l47.5-207h49.9l-11,48.7h1.2l-36.5,158.3H116.2z M261.1-187.3l28.4-124.2
			c3.5-15.1,2.6-26.6-2.8-34.3c-5.4-7.7-14.8-11.6-28-11.6c-16,0-29.8,5.1-41.4,15.2c-11.6,10.1-19.6,24.4-23.9,42.8l6.1-50.3
			c8.7-14.9,20.6-26.7,35.7-35.5c15.1-8.8,31-13.2,47.5-13.2c23.5,0,40.8,7.5,51.8,22.5c11,15,13.6,35.1,7.9,60.3l-29.6,128.3H261.1
			z"/>
		<path class="st1" d="M335-100.1c-5.1,0-10.9-0.5-17.3-1.4c-6.4-0.9-12.4-2.6-18.1-5.1l8.9-38.6c2.2,1.1,5,2.1,8.5,3
			c3.5,0.9,7,1.4,10.6,1.4c7,0,12.7-2,16.8-5.9c4.2-3.9,7.1-9.7,8.7-17.3l53.2-230.5H458l-54.8,237c-4.3,18.1-12,32.2-23.1,42.2
			C368.9-105.1,353.9-100.1,335-100.1z M411.3-428.4l11.8-56.4h56l-12.2,56.4H411.3z"/>
	</g>
	<path class="st1" d="M312.7-187.3c0,0-5.2,21-6.9,30.8c-0.6,3.8,0.3,7.7,3,10.5c1.6,1.6,3.7,2.6,7,3.5l-15.3,36.2
		c0,0-33.8-9.8-40.6-40.7c0,0-4.2-16.9,1.2-40.4H312.7z"/>
</g>
</svg>
