<?xml version="1.0" encoding="utf-8"?>
<!-- Generator: Adobe Illustrator 24.2.0, SVG Export Plug-In . SVG Version: 6.00 Build 0)  -->
<svg version="1.1" id="Capa_1" xmlns="http://www.w3.org/2000/svg" xmlns:xlink="http://www.w3.org/1999/xlink" x="0px" y="0px"
	 viewBox="0 0 150 29.7" style="enable-background:new 0 0 150 29.7;" xml:space="preserve">
<g>
	<path style="fill:#2FB9CE;" d="M0.4,28.1V1.2h6l13.1,23.4L18.2,25V1.2h4.7v26.9h-6L3.8,4.7l1.4-0.3v23.7H0.4z"/>
	<path style="fill:#2FB9CE;" d="M36.3,28.5c-2,0-3.8-0.4-5.3-1.3c-1.5-0.8-2.7-2-3.5-3.5c-0.8-1.5-1.3-3.2-1.3-5.2s0.4-3.7,1.3-5.1
		c0.8-1.5,2-2.6,3.5-3.5c1.5-0.8,3.2-1.3,5.2-1.3c1.9,0,3.5,0.4,4.9,1.2c1.4,0.8,2.5,1.9,3.3,3.3c0.8,1.4,1.2,3.1,1.2,5
		c0,0.3,0,0.7,0,1c0,0.3-0.1,0.6-0.1,0.9H29.1v-3.3h12.6l-1,0.9c0-1.8-0.4-3.1-1.2-4s-2-1.3-3.4-1.3c-1.6,0-2.9,0.5-3.8,1.6
		c-0.9,1.1-1.4,2.7-1.4,4.7c0,2,0.5,3.6,1.4,4.7c0.9,1.1,2.3,1.6,4,1.6c1,0,1.9-0.2,2.6-0.6c0.7-0.4,1.3-0.9,1.6-1.7H45
		c-0.6,1.8-1.7,3.2-3.2,4.3C40.4,28,38.5,28.5,36.3,28.5z"/>
	<path style="fill:#2FB9CE;" d="M56.9,20.2l-5.8,8H46l8.7-11.3L56.9,20.2z M60.6,28.1l-5.9-8.5L46.8,9.1h5.3l5.3,7.7l8.5,11.3H60.6z
		 M55.1,16.7l5.3-7.6h5.2l-8.3,10.9L55.1,16.7z"/>
	<path style="fill:#2FB9CE;" d="M67.4,12.8V9.1H81v3.7H67.4z M77.9,28.5c-2.3,0-4.1-0.6-5.2-1.7s-1.7-2.8-1.7-5V4.7L75.8,3v19
		c0,0.9,0.2,1.6,0.7,2.1c0.5,0.4,1.3,0.7,2.4,0.7c0.4,0,0.8,0,1.1-0.1c0.3-0.1,0.7-0.1,1-0.2V28c-0.3,0.1-0.7,0.3-1.3,0.4
		S78.6,28.5,77.9,28.5z"/>
	<path style="fill:#2FB9CE;" d="M94.3,28.5c-0.9,0-1.9-0.1-2.7-0.2c-0.9-0.1-1.5-0.3-1.9-0.5v-3.9c0.5,0.2,1.1,0.4,1.8,0.5
		c0.7,0.1,1.4,0.2,2.1,0.2c1.5,0,2.7-0.3,3.4-0.9c0.7-0.6,1.1-1.5,1.1-2.9V1.2h4.9v19.8c0,2.5-0.7,4.4-2.2,5.6
		C99.3,27.9,97.1,28.5,94.3,28.5z"/>
	<path style="fill:#2FB9CE;" d="M116.3,28.5c-2,0-3.8-0.4-5.3-1.3s-2.7-2-3.6-3.5c-0.8-1.5-1.3-3.2-1.3-5.2s0.4-3.6,1.3-5.1
		c0.8-1.5,2-2.6,3.6-3.5c1.5-0.8,3.3-1.3,5.3-1.3c2,0,3.8,0.4,5.3,1.3c1.5,0.8,2.7,2,3.6,3.5c0.8,1.5,1.3,3.2,1.3,5.1
		s-0.4,3.7-1.3,5.2c-0.9,1.5-2,2.7-3.6,3.5S118.4,28.5,116.3,28.5z M116.3,24.7c1,0,1.9-0.3,2.7-0.8c0.8-0.5,1.4-1.2,1.9-2.2
		c0.4-0.9,0.7-2,0.7-3.3c0-1.9-0.5-3.3-1.5-4.4c-1-1.1-2.2-1.6-3.8-1.6c-1.5,0-2.8,0.5-3.8,1.6c-1,1.1-1.5,2.5-1.5,4.4
		c0,1.3,0.2,2.4,0.7,3.3c0.5,0.9,1.1,1.7,1.9,2.2C114.4,24.5,115.3,24.7,116.3,24.7z"/>
	<path style="fill:#2FB9CE;" d="M140.9,28.5c-1.8,0-3.3-0.4-4.5-1.3c-1.2-0.9-1.9-2-2.1-3.6l0.3,0v4.5H130V1.2h4.7v12.1l-0.3-0.1
		c0.3-1.4,1.1-2.5,2.3-3.4c1.2-0.8,2.7-1.2,4.5-1.2c1.7,0,3.2,0.4,4.4,1.2c1.3,0.8,2.2,1.9,2.9,3.4c0.7,1.5,1,3.2,1,5.2
		c0,2-0.4,3.8-1.1,5.3c-0.7,1.5-1.7,2.7-3,3.5C144.2,28.1,142.6,28.5,140.9,28.5z M139.7,24.6c1.5,0,2.7-0.5,3.6-1.6
		c0.9-1.1,1.3-2.5,1.3-4.5c0-1.9-0.5-3.4-1.4-4.4c-0.9-1-2.1-1.6-3.6-1.6c-1.5,0-2.7,0.5-3.6,1.6c-0.9,1.1-1.4,2.5-1.4,4.5
		s0.5,3.4,1.4,4.4C136.9,24.1,138.1,24.6,139.7,24.6z"/>
</g>
</svg>
