<?xml version="1.0" encoding="utf-8"?>
<!-- Generator: Adobe Illustrator 24.2.0, SVG Export Plug-In . SVG Version: 6.00 Build 0)  -->
<svg version="1.1" id="Capa_1" xmlns="http://www.w3.org/2000/svg" xmlns:xlink="http://www.w3.org/1999/xlink" x="0px" y="0px"
	 viewBox="0 0 10 50" style="enable-background:new 0 0 10 50;" xml:space="preserve">
<style type="text/css">
	.st0{fill:#2FB9CE;}
</style>
<path class="st0" d="M5,17.9L5,17.9c-1.3,0-2.4-1.1-2.4-2.4V2.4C2.6,1.1,3.7,0,5,0h0c1.3,0,2.4,1.1,2.4,2.4v13.1
	C7.4,16.9,6.3,17.9,5,17.9z"/>
<path class="st0" d="M5,50L5,50c-1.3,0-2.4-1.1-2.4-2.4V34.5c0-1.3,1.1-2.4,2.4-2.4h0c1.3,0,2.4,1.1,2.4,2.4v13.1
	C7.4,48.9,6.3,50,5,50z"/>
<circle class="st0" cx="5" cy="25" r="4.4"/>
</svg>
